<?xml version="1.0" encoding="UTF-8" standalone="no"?>
<!-- Created with Inkscape (http://www.inkscape.org/) -->

<svg
   xmlns:dc="http://purl.org/dc/elements/1.1/"
   xmlns:cc="http://creativecommons.org/ns#"
   xmlns:rdf="http://www.w3.org/1999/02/22-rdf-syntax-ns#"
   xmlns:svg="http://www.w3.org/2000/svg"
   xmlns="http://www.w3.org/2000/svg"
   xmlns:sodipodi="http://sodipodi.sourceforge.net/DTD/sodipodi-0.dtd"
   xmlns:inkscape="http://www.inkscape.org/namespaces/inkscape"
   width="350"
   height="75"
   viewBox="0 0 92.60417 19.84375"
   version="1.1"
   id="svg2347"
   inkscape:version="0.92.5 (2060ec1f9f, 2020-04-08)"
   sodipodi:docname="name.svg"
   inkscape:export-filename="/home/ncbradley/Sync/sh-insight/src/assets/name.png"
   inkscape:export-xdpi="96"
   inkscape:export-ydpi="96">
  <defs
     id="defs2341" />
  <sodipodi:namedview
     id="base"
     pagecolor="#ffffff"
     bordercolor="#666666"
     borderopacity="1.0"
     inkscape:pageopacity="0.0"
     inkscape:pageshadow="2"
     inkscape:zoom="1.4"
     inkscape:cx="71.107712"
     inkscape:cy="-53.648879"
     inkscape:document-units="mm"
     inkscape:current-layer="layer1"
     showgrid="false"
     showguides="false"
     inkscape:window-width="1920"
     inkscape:window-height="1080"
     inkscape:window-x="0"
     inkscape:window-y="0"
     inkscape:window-maximized="1"
     units="px">
    <inkscape:grid
       type="xygrid"
       id="grid2907" />
  </sodipodi:namedview>
  <metadata
     id="metadata2344">
    <rdf:RDF>
      <cc:Work
         rdf:about="">
        <dc:format>image/svg+xml</dc:format>
        <dc:type
           rdf:resource="http://purl.org/dc/dcmitype/StillImage" />
        <dc:title></dc:title>
      </cc:Work>
    </rdf:RDF>
  </metadata>
  <g
     inkscape:label="Layer 1"
     inkscape:groupmode="layer"
     id="layer1"
     transform="translate(0,-277.15625)">
    <g
       aria-label="sh insight"
       style="font-style:normal;font-weight:normal;font-size:3.17499995px;line-height:1.25;font-family:sans-serif;letter-spacing:0px;word-spacing:0px;fill:#000000;fill-opacity:1;stroke:none;stroke-width:0.26458332"
       id="text7858">
      <path
         d="m 4.153447,291.54845 q -1.0506363,0 -2.0743333,-0.28286 -1.0236969,-0.28287 -1.79146967,-0.80818 l 0.60613636,-1.44126 q 0.76777271,0.49838 1.65677271,0.76777 0.889,0.25592 1.6567727,0.25592 0.6196061,0 0.9832879,-0.18857 0.3636818,-0.20205 0.3636818,-0.66002 0,-0.47144 -0.3636818,-0.67348 -0.3502121,-0.21552 -1.2392121,-0.3098 -1.643303,-0.17511 -2.5188333,-0.67349 -0.87553034,-0.51185 -0.87553034,-1.68371 0,-1.22574 0.94287874,-1.9127 0.9428788,-0.70042 2.4514849,-0.70042 0.8620606,0 1.7645303,0.26939 0.9159394,0.25593 1.6567727,0.72737 l -0.5118485,1.3739 q -0.7273636,-0.41756 -1.4547272,-0.63307 -0.713894,-0.22899 -1.3739091,-0.22899 -0.5522576,0 -0.8755303,0.20205 -0.3232728,0.20204 -0.3232728,0.63307 0,0.47144 0.4310303,0.66002 0.4445,0.17511 1.468197,0.3098 1.5759545,0.18858 2.3302576,0.75431 0.7677727,0.56572 0.7677727,1.6433 0,1.23921 -0.9967576,1.92617 -0.9967575,0.67348 -2.6804697,0.67348 z"
         style="font-style:normal;font-variant:normal;font-weight:bold;font-stretch:normal;font-size:14.8166666px;font-family:'Input Mono';-inkscape-font-specification:'Input Mono, Bold';font-variant-ligatures:normal;font-variant-caps:normal;font-variant-numeric:normal;font-feature-settings:normal;text-align:start;writing-mode:lr-tb;text-anchor:start;stroke-width:0.26458332"
         id="path8512" />
      <path
         d="m 9.7972266,291.45416 v -10.77575 h 2.2898484 v 4.13519 h 0.404091 q 0.323273,-0.74083 0.969818,-1.15839 0.646546,-0.41756 1.468197,-0.41756 1.077576,0 1.710652,0.68695 0.646545,0.68696 0.646545,1.84535 v 5.68421 H 14.99653 v -5.07807 q 0,-0.66002 -0.269394,-0.99676 -0.269394,-0.35021 -0.767773,-0.35021 -0.45797,0 -0.942879,0.33674 -0.484909,0.32327 -0.929409,0.90247 v 5.18583 z"
         style="font-style:normal;font-variant:normal;font-weight:bold;font-stretch:normal;font-size:14.8166666px;font-family:'Input Mono';-inkscape-font-specification:'Input Mono, Bold';font-variant-ligatures:normal;font-variant-caps:normal;font-variant-numeric:normal;font-feature-settings:normal;text-align:start;writing-mode:lr-tb;text-anchor:start;stroke-width:0.26458332"
         id="path8514" />
      <path
         d="m 28.749043,291.45416 v -1.68371 h 2.505364 v -4.71439 h -2.505364 v -1.68372 h 4.795212 v 6.39811 h 2.505364 v 1.68371 z m 3.758046,-9.37491 q -0.686955,0 -1.117985,-0.20204 -0.431031,-0.21552 -0.431031,-0.74084 v -0.1751 q 0,-0.53879 0.431031,-0.7543 0.43103,-0.22899 1.117985,-0.22899 0.686954,0 1.117984,0.22899 0.431031,0.21551 0.431031,0.7543 v 0.1751 q 0,0.52532 -0.431031,0.74084 -0.43103,0.20204 -1.117984,0.20204 z"
         style="font-style:normal;font-variant:normal;font-weight:bold;font-stretch:normal;font-size:14.8166666px;font-family:'Input Mono';-inkscape-font-specification:'Input Mono, Bold';font-variant-ligatures:normal;font-variant-caps:normal;font-variant-numeric:normal;font-feature-settings:normal;text-align:start;writing-mode:lr-tb;text-anchor:start;stroke-width:0.26458332"
         id="path8516" />
      <path
         d="m 38.08352,291.45416 v -8.08182 h 2.289848 v 1.44126 h 0.404091 q 0.309803,-0.74083 0.983288,-1.15839 0.673485,-0.41756 1.549015,-0.41756 1.064106,0 1.656773,0.67348 0.606136,0.67349 0.606136,1.85882 v 5.68421 h -2.289848 v -5.26665 q 0,-0.56573 -0.269394,-0.86206 -0.269394,-0.29633 -0.767773,-0.29633 -0.45797,0 -0.969818,0.26939 -0.498379,0.2694 -0.90247,0.78124 v 5.37441 z"
         style="font-style:normal;font-variant:normal;font-weight:bold;font-stretch:normal;font-size:14.8166666px;font-family:'Input Mono';-inkscape-font-specification:'Input Mono, Bold';font-variant-ligatures:normal;font-variant-caps:normal;font-variant-numeric:normal;font-feature-settings:normal;text-align:start;writing-mode:lr-tb;text-anchor:start;stroke-width:0.26458332"
         id="path8518" />
      <path
         d="m 51.297269,291.54845 q -1.050637,0 -2.074334,-0.28286 -1.023697,-0.28287 -1.791469,-0.80818 l 0.606136,-1.44126 q 0.767773,0.49838 1.656773,0.76777 0.889,0.25592 1.656773,0.25592 0.619606,0 0.983287,-0.18857 0.363682,-0.20205 0.363682,-0.66002 0,-0.47144 -0.363682,-0.67348 -0.350212,-0.21552 -1.239212,-0.3098 -1.643303,-0.17511 -2.518833,-0.67349 -0.87553,-0.51185 -0.87553,-1.68371 0,-1.22574 0.942878,-1.9127 0.942879,-0.70042 2.451485,-0.70042 0.862061,0 1.764531,0.26939 0.915939,0.25593 1.656772,0.72737 l -0.511848,1.3739 q -0.727364,-0.41756 -1.454727,-0.63307 -0.713894,-0.22899 -1.37391,-0.22899 -0.552257,0 -0.87553,0.20205 -0.323273,0.20204 -0.323273,0.63307 0,0.47144 0.431031,0.66002 0.4445,0.17511 1.468197,0.3098 1.575954,0.18858 2.330257,0.75431 0.767773,0.56572 0.767773,1.6433 0,1.23921 -0.996758,1.92617 -0.996757,0.67348 -2.680469,0.67348 z"
         style="font-style:normal;font-variant:normal;font-weight:bold;font-stretch:normal;font-size:14.8166666px;font-family:'Input Mono';-inkscape-font-specification:'Input Mono, Bold';font-variant-ligatures:normal;font-variant-caps:normal;font-variant-numeric:normal;font-feature-settings:normal;text-align:start;writing-mode:lr-tb;text-anchor:start;stroke-width:0.26458332"
         id="path8520" />
      <path
         d="m 57.035336,291.45416 v -1.68371 H 59.5407 v -4.71439 h -2.505364 v -1.68372 h 4.795212 v 6.39811 h 2.505364 v 1.68371 z m 3.758046,-9.37491 q -0.686955,0 -1.117985,-0.20204 -0.431031,-0.21552 -0.431031,-0.74084 v -0.1751 q 0,-0.53879 0.431031,-0.7543 0.43103,-0.22899 1.117985,-0.22899 0.686954,0 1.117984,0.22899 0.431031,0.21551 0.431031,0.7543 v 0.1751 q 0,0.52532 -0.431031,0.74084 -0.43103,0.20204 -1.117984,0.20204 z"
         style="font-style:normal;font-variant:normal;font-weight:bold;font-stretch:normal;font-size:14.8166666px;font-family:'Input Mono';-inkscape-font-specification:'Input Mono, Bold';font-variant-ligatures:normal;font-variant-caps:normal;font-variant-numeric:normal;font-feature-settings:normal;text-align:start;writing-mode:lr-tb;text-anchor:start;stroke-width:0.26458332"
         id="path8522" />
      <path
         d="m 74.343873,291.89866 q 0,1.09105 -0.835121,1.73759 -0.821652,0.64655 -2.182091,0.64655 h -2.384136 q -1.481667,0 -2.276379,-0.53879 -0.781242,-0.52532 -0.781242,-1.37391 0,-0.67348 0.40409,-1.07757 0.417561,-0.40409 1.037167,-0.47144 v -0.2694 q -0.484909,-0.13469 -0.821651,-0.4445 -0.336743,-0.3098 -0.336743,-0.95635 0,-0.70042 0.484909,-1.15839 0.484909,-0.47144 1.293091,-0.56573 v -0.25592 q -0.686954,-0.18858 -1.023697,-0.59267 -0.336742,-0.41756 -0.336742,-0.95635 v -0.12122 q 0,-1.01023 0.86206,-1.56249 0.875531,-0.56573 2.2225,-0.56573 h 4.579697 v 1.40085 l -2.182091,-0.26939 v 0.26939 q 0.498379,0.1347 0.808182,0.52532 0.323273,0.37715 0.323273,0.83512 v 0.14817 q 0,0.96982 -0.862061,1.52207 -0.86206,0.53879 -2.262909,0.53879 h -1.32003 q -0.417561,0 -0.660015,0.16164 -0.228985,0.14817 -0.228985,0.52532 0,0.36368 0.255924,0.52532 0.269394,0.16163 0.727364,0.16163 h 2.572712 q 1.32003,0 2.114742,0.53879 0.808182,0.52532 0.808182,1.6433 z m -4.445,-4.71439 q 0.619606,0 0.91594,-0.24246 0.296333,-0.25592 0.296333,-0.71389 v -0.59267 q 0,-0.43103 -0.296333,-0.67348 -0.296334,-0.24246 -0.91594,-0.24246 -0.619606,0 -0.915939,0.24246 -0.296334,0.24245 -0.296334,0.67348 v 0.59267 q 0,0.45797 0.282864,0.71389 0.282864,0.24246 0.929409,0.24246 z m -0.942879,5.73809 h 2.411076 q 0.484909,0 0.794712,-0.16164 0.309803,-0.14816 0.309803,-0.6196 0,-0.47144 -0.309803,-0.63308 -0.296333,-0.14817 -0.754303,-0.14817 h -3.340485 v 0.7139 q 0,0.41756 0.215516,0.63307 0.228984,0.21552 0.673484,0.21552 z"
         style="font-style:normal;font-variant:normal;font-weight:bold;font-stretch:normal;font-size:14.8166666px;font-family:'Input Mono';-inkscape-font-specification:'Input Mono, Bold';font-variant-ligatures:normal;font-variant-caps:normal;font-variant-numeric:normal;font-feature-settings:normal;text-align:start;writing-mode:lr-tb;text-anchor:start;stroke-width:0.26458332"
         id="path8524" />
      <path
         d="m 75.798577,291.45416 v -10.77575 h 2.289848 v 4.13519 h 0.404091 q 0.323273,-0.74083 0.969819,-1.15839 0.646545,-0.41756 1.468196,-0.41756 1.077576,0 1.710652,0.68695 0.646545,0.68696 0.646545,1.84535 v 5.68421 H 80.99788 v -5.07807 q 0,-0.66002 -0.269394,-0.99676 -0.269394,-0.35021 -0.767773,-0.35021 -0.457969,0 -0.942878,0.33674 -0.48491,0.32327 -0.92941,0.90247 v 5.18583 z"
         style="font-style:normal;font-variant:normal;font-weight:bold;font-stretch:normal;font-size:14.8166666px;font-family:'Input Mono';-inkscape-font-specification:'Input Mono, Bold';font-variant-ligatures:normal;font-variant-caps:normal;font-variant-numeric:normal;font-feature-settings:normal;text-align:start;writing-mode:lr-tb;text-anchor:start;stroke-width:0.26458332"
         id="path8526" />
      <path
         d="m 90.413175,291.58886 q -1.575955,0 -2.438016,-0.72736 -0.86206,-0.74084 -0.86206,-2.14169 v -3.66375 h -2.006985 v -1.68372 h 2.006985 v -2.69393 h 2.289848 v 2.69393 h 3.12497 v 1.68372 h -3.12497 v 3.36742 q 0,0.76777 0.350212,1.11799 0.350213,0.33674 0.969819,0.33674 0.377151,0 0.794712,-0.0539 0.43103,-0.0539 0.86206,-0.21552 l 0.269394,1.65678 q -0.323272,0.13469 -0.915939,0.22898 -0.592667,0.0943 -1.32003,0.0943 z"
         style="font-style:normal;font-variant:normal;font-weight:bold;font-stretch:normal;font-size:14.8166666px;font-family:'Input Mono';-inkscape-font-specification:'Input Mono, Bold';font-variant-ligatures:normal;font-variant-caps:normal;font-variant-numeric:normal;font-feature-settings:normal;text-align:start;writing-mode:lr-tb;text-anchor:start;stroke-width:0.26458332"
         id="path8528" />
    </g>
    <path
       id="path881-5"
       d="m 17.384543,280.08576 v 2.84414 l 6.921898,4.4242 -6.921898,4.42421 v 2.84411 l 11.536502,-7.26832 z"
       inkscape:connector-curvature="0"
       style="fill:#dde2e3;fill-opacity:1;stroke-width:2.41518521"
       inkscape:export-xdpi="96"
       inkscape:export-ydpi="96"
       sodipodi:nodetypes="ccccccc" />
  </g>
  <g
     inkscape:groupmode="layer"
     id="layer6"
     inkscape:label="text"
     style="display:none">
    <text
       transform="translate(0,-277.15625)"
       xml:space="preserve"
       style="font-style:normal;font-weight:normal;font-size:3.17499995px;line-height:1.25;font-family:sans-serif;letter-spacing:0px;word-spacing:0px;fill:#000000;fill-opacity:1;stroke:none;stroke-width:0.26458332"
       x="86.922806"
       y="372.95026"
       id="text7858-3"><tspan
         sodipodi:role="line"
         id="tspan7856-1"
         x="86.922806"
         y="372.95026"
         style="font-style:normal;font-variant:normal;font-weight:bold;font-stretch:normal;font-size:14.8166666px;font-family:'Input Mono';-inkscape-font-specification:'Input Mono, Bold';font-variant-ligatures:normal;font-variant-caps:normal;font-variant-numeric:normal;font-feature-settings:normal;text-align:start;writing-mode:lr-tb;text-anchor:start;stroke-width:0.26458332">sh insight</tspan></text>
  </g>
</svg>
